<svg width="110" height="100" viewBox="0 0 110 100" fill="none" xmlns="http://www.w3.org/2000/svg">
    <path fill-rule="evenodd" clip-rule="evenodd" d="M107.476 7.06112C108.093 7.09294 108.439 7.7844 108.095 8.29683L99.9948 20.3762L79.8526 48.5079C79.8108 48.5662 79.7772 48.6299 79.7525 48.6973L61.7307 97.9392C61.5963 98.3065 61.2145 98.5212 60.8308 98.4455L54.4651 97.1883C54.0814 97.1125 53.81 96.7687 53.8253 96.3779L56.1031 38.1737C56.1384 37.2716 54.8809 37.0191 54.5652 37.8648L37.2982 84.1126C37.0382 84.8091 36.0495 84.7987 35.8042 84.0969L17.7936 32.5729C17.5039 31.7441 16.2821 31.9285 16.2499 32.8059L13.9861 94.4495C13.97 94.8879 13.6016 95.2303 13.1631 95.2142L6.81262 94.9809C6.37421 94.9648 6.03186 94.5964 6.04796 94.158L9.11219 10.7179C9.12812 10.2841 8.79287 9.91788 8.35935 9.89549L2.02147 9.56811C1.58335 9.54548 1.24652 9.17197 1.26916 8.73384L1.59697 2.38749C1.6196 1.94937 1.99311 1.61254 2.43124 1.63517L107.476 7.06112ZM18.8541 11.5338C18.6678 11.001 19.0812 10.4493 19.6449 10.4784L54.535 12.2806C55.0711 12.3083 55.426 12.8488 55.2382 13.3518L37.5442 60.7434C37.2842 61.4398 36.2955 61.4294 36.0501 60.7277L18.8541 11.5338ZM65.0133 13.6272C65.0306 13.185 65.4061 12.8421 65.8481 12.865L67.1982 12.9347C67.5814 12.9545 67.8956 13.2453 67.945 13.6258L72.1568 46.0778C72.1733 46.2044 72.1589 46.3332 72.1151 46.4531L61.1331 83.5481C60.8218 84.3987 62.8868 67.965 62.9222 67.06L65.0133 13.6272ZM78.627 34.2122C78.7198 34.9274 79.6408 35.1588 80.0606 34.5724L93.4653 15.8507L93.6957 15.5072C94.0393 14.9947 93.6931 14.3033 93.0769 14.2714L76.8753 13.4346C76.3801 13.409 75.9827 13.8384 76.0465 14.3301L78.627 34.2122Z" fill="#f44236" stroke-width="2"/>
</svg>
